<svg xmlns="http://www.w3.org/2000/svg" viewBox="0 0 500 500"><g id="freepik--Floor--inject-63"><polygon points="44.45 460.86 95.84 460.62 147.23 460.53 250 460.36 352.77 460.53 404.16 460.61 455.55 460.86 404.16 461.1 352.77 461.19 250 461.36 147.23 461.19 95.84 461.1 44.45 460.86" style="fill:#263238"></polygon></g><g id="freepik--Plants--inject-63"><path d="M375.87,424.57c-4.3-5.54-9.19-11.65-8.89-19,.28-6.8,2.56-14.33,8.8-17.95,1.79-1,3.09-1.39,3.66.9.87,3.5-.62,7.74-1.37,11.13a70.83,70.83,0,0,0-1.8,13.28c-.1,3.14.13,6.29.11,9.43,0,.4,0,.79,0,1.19,0,.15,0,.3,0,.45l.11.17a.32.32,0,0,1,.05.32.19.19,0,0,1-.07.11A.36.36,0,0,1,375.87,424.57Z" style="fill:#FFBAA6"></path><path d="M376.44,424.58c-3.51-5.06-7.62-10.29-7.1-16.74a28.57,28.57,0,0,1,2.3-8.7c.53-1.26,2.08-5,3.72-5.09,2.95-.16-1,11.73-1.19,13.12a30,30,0,0,0,2.21,15.17c0,.4,0,.79,0,1.19a33.57,33.57,0,0,1-2.78-10.59c-.44-5.07,1.27-9.3,2.2-14.18.2-1.05,1-4.39-.79-4.12-1.2.18-2.74,3.83-3.07,4.61a28.15,28.15,0,0,0-2.2,8.25c-.62,6.5,3.37,11.78,6.79,17A.19.19,0,0,1,376.44,424.58Z" style="fill:#fff"></path><path d="M374.65,430.21l-.75.34h0a.18.18,0,0,1-.19,0,.3.3,0,0,1-.1-.38.22.22,0,0,1,.14-.1l.11,0,.23-.08v0a.15.15,0,0,0,.05-.06c3-3.71,6.67-6.92,9.68-10.7,2.86-3.6,5.48-7.39,8.63-10.76,2-2.13,12.43-12.09,14.66-5.93,1,2.72-1.17,6.64-2.52,8.91a29.41,29.41,0,0,1-7,7.89C390.78,424.72,382.47,426.76,374.65,430.21Z" style="fill:#FFBAA6"></path><path d="M390.29,421.45a34.63,34.63,0,0,0,7.28-6.49c.73-.87,4.2-5,3.05-6.42-.73-.89-2.69.27-3.36.63-2.81,1.53-4.85,4.27-7,6.58a132.19,132.19,0,0,1-14.15,13c-.36.19-.74.37-1.09.57l-.89.49-.31.17-.24.13a.3.3,0,0,0,.1.38l.7-.37-.51.39h0l.61-.28.14-.06.85-.64C380.5,427,385.64,424.62,390.29,421.45Zm-13,6.7c2.94-2.33,5.76-4.81,8.47-7.41,2.18-2.1,4.26-4.29,6.29-6.53a31,31,0,0,1,3.64-3.61c1-.8,5-3.47,4.08.29-.72,2.73-4.21,5.78-6.24,7.51a48.93,48.93,0,0,1-7.31,5C383.34,425.12,380.31,426.62,377.32,428.15Z" style="fill:#fff"></path><path d="M361.25,444.51h0a1.52,1.52,0,0,1-.17-.19c-3.48-5.39-9-12-8.63-18.77.24-5,3-11.78,8-13.84,5.63-2.31,4.53,8.33,4.38,11.05a195.57,195.57,0,0,1-3.23,21.67s0,.09,0,.13v0C361.48,444.68,361.36,444.6,361.25,444.51Z" style="fill:#FFBAA6"></path><path d="M361.53,444.58l-.09-1.31c-.31-5-.4-10-.25-14.93,0-1.26,1-10.86-1.46-10.41-1.51.29-2.41,3.87-2.74,5a19.76,19.76,0,0,0-.69,6.49c.33,5,2.89,9.57,4.68,14.24.09.21.18.43.26.66a.66.66,0,0,0,0,.14h0C361.36,444.6,361.48,444.68,361.53,444.58Zm-4.45-12.43a19.92,19.92,0,0,1-.19-6.67c.2-1.47,1.1-6.79,3-6.89,1,0,.89.57,1.08,1.69a13.5,13.5,0,0,1,.15,1.56c.06,1.28,0,2.57-.09,3.84-.12,2.26-.18,4.5-.19,6.75,0,3.69.1,7.37.35,11C359.88,439.66,357.88,436.09,357.08,432.15Z" style="fill:#fff"></path><path d="M378.8,446.3a37.91,37.91,0,0,1-22,2.29.34.34,0,0,1-.12-.06.3.3,0,0,1-.1-.34.28.28,0,0,1,.32-.19l.46.08c7.69-4.23,15.4-8.34,23-12.72,1.79-1,13.37-7.37,14-2.86.38,2.79-3.88,6.06-5.71,7.64A38.4,38.4,0,0,1,378.8,446.3Z" style="fill:#FFBAA6"></path><path d="M386.92,437.59c.47-.6.85-1.35,0-1.71-1.7-.7-7.07,2.39-8.6,3.18-6.34,3.23-12.79,5.83-19.37,8.47l-1.67.68-.65,0a.29.29,0,0,0,.1.34.85.85,0,0,1,.17-.06c.29,0,.59,0,.88,0h0a44.23,44.23,0,0,0,13.74-2.07,42,42,0,0,0,8.08-3.51C381.94,441.56,385.26,439.79,386.92,437.59Zm-28.81,10.59h-.42l.7-.23a126.87,126.87,0,0,0,15.27-6.16c2.51-1.23,4.93-2.61,7.47-3.74,1.08-.48,4.08-1.94,5.07-1.48s-.06,1.2-.61,1.71c-.39.36-1.17.93-1.57,1.23A44.21,44.21,0,0,1,358.11,448.18Z" style="fill:#fff"></path><path d="M342.18,460.42l-.75-1c.91-.68,1.81-1.35,2.7-2,3.61-2.79,7.2-5.59,10.73-8.47,2-1.64,4-3.3,5.92-5l.2-.17.46-.43c.17-.14.33-.3.5-.46a55.14,55.14,0,0,0,11-13.35c1-1.69,1.85-3.43,2.69-5.19l.24-.5a.84.84,0,0,0,.06-.14c.09-.17.17-.35.25-.53l.18-.4c2.51-5.45,4.57-11.12,6.77-16.66.62-1.58,1.26-3.18,1.9-4.75,0-.11.08-.2.12-.29s.09-.23.14-.35c2.81-7,5.71-14,8.34-21,.09-.27.48-.08.39.18-1.72,4.72-3.32,9.49-4.95,14.25l-.66,1.91-1.29,3.75c-.88,2.51-1.77,5-2.7,7.47-2.61,7-5.15,14.11-8.61,20.73-.26.5-.52,1-.8,1.47-.16.31-.33.62-.51.91s-.39.7-.6,1.05c-3.64,6.12-8.51,10.87-13.87,15.29-.37.3-.74.62-1.13.92-.17.13-.34.29-.52.43l-.28.22-.36.29h0l-.28.21-1,.78c-3.59,2.81-7.21,5.56-10.84,8.29C344.48,458.63,343.33,459.53,342.18,460.42Z" style="fill:#FFBAA6"></path><path d="M386.78,381.2c1.78-5.6,7.06-14.94,14.19-13.7a5.51,5.51,0,0,1,4.72,5.64c0,3.37-2.32,6.55-4.32,9.07-5.31,6.74-11.23,12.93-16.06,20.06,0,.07-.42.61-.52.77s-.31,0-.22-.18.32-.46.47-.7C385.07,395.26,384.67,387.85,386.78,381.2Z" style="fill:#FFBAA6"></path><path d="M385.32,402.32a.94.94,0,0,0,.06-.15,57,57,0,0,1,3-6.23,116.53,116.53,0,0,1,8-12c1.11-1.49,6.67-8.6,2.06-9.1-1.94-.21-3.92,1.45-5.25,2.66a21.81,21.81,0,0,0-5,6.93c-2.44,5.18-3,10.91-3.08,16.56,0,.26,0,.52,0,.78a2.29,2.29,0,0,1-.1.23s0,.1-.06.15a.18.18,0,0,0,0,.1.2.2,0,0,0,.26.15A.13.13,0,0,0,385.32,402.32Zm0-1.67a46.06,46.06,0,0,1,2.27-13.8A24.45,24.45,0,0,1,391,380.4,19.22,19.22,0,0,1,393.2,378a14.77,14.77,0,0,1,1.89-1.54c1.48-1,3.49-1.53,4.25-.78,1,.92.6,1.71-.12,3.28a12.73,12.73,0,0,1-.82,1.55c-.75,1.24-1.62,2.42-2.48,3.58-1.44,1.93-2.86,3.86-4.21,5.85-.92,1.34-1.81,2.72-2.63,4.11a60.64,60.64,0,0,0-3.82,7.49C385.26,401.24,385.28,400.94,385.3,400.65Z" style="fill:#fff"></path><path d="M109.55,415.63c3.46,3.19,6.71,6.61,9.91,10.06,1.82,2,3.62,3.94,5.45,5.89,2,2.16,3.9,4.56,6.72,5.62h0a1.8,1.8,0,0,1,.34.21.14.14,0,0,1,0,.06.35.35,0,0,1-.43.43l-.19-.07h-.08a11.55,11.55,0,0,1-2.56-.59,62.65,62.65,0,0,1-6.85-2,58.9,58.9,0,0,1-13.06-6.54A49.54,49.54,0,0,1,99.06,420c-2.28-2.65-5.71-6.56-6.35-10.13-.58-3.24,3.6-2.6,5.53-2C102.63,409.12,106.26,412.61,109.55,415.63Z" style="fill:#FFBAA6"></path><path d="M99,413.26c-1,1.39,2.77,5.6,4.35,7.48a47.53,47.53,0,0,0,8.48,7.86,61.67,61.67,0,0,0,18.64,9c.26.08.53.17.8.24h.08l.18.06a.36.36,0,0,0,.45-.43c-.54-.24-1.05-.5-1.55-.78s-.91-.51-1.35-.78c-4.82-2.87-9-6.86-13.12-10.66C111.18,420.77,100.36,411.43,99,413.26Zm30.79,23.53c.67.37,1.35.71,2,1l-1.62-.53a68.07,68.07,0,0,1-16.5-7.84,48.88,48.88,0,0,1-7.92-6.59,45.05,45.05,0,0,1-3.61-4.21c-.46-.62-3.49-4.31-2.69-5,.57-.51,4,1.76,4.12,1.81.7.44,1.38.93,2,1.42,1.39,1,2.71,2.11,4,3.22,2.82,2.42,5.52,5,8.26,7.51C121.63,430.92,125.47,434.37,129.83,436.79Z" style="fill:#fff"></path><path d="M135.67,401.29c3.15,6.1,3.89,13.11,4,19.87,0,3.63-.07,7.25-.11,10.87,0,3-.28,6.55.34,9.7l.09.42a12.41,12.41,0,0,0,.86,2.58.17.17,0,0,1,0,.17,1.67,1.67,0,0,1,.16.24c0,.06,0,.14-.09.09l-.22-.21,0,0a.19.19,0,0,1-.2-.12.31.31,0,0,1,0-.1l-.22-.21c-5.29-4.88-8.26-13.13-10.27-19.77s-2.94-13.69-1.19-20.46c.44-1.7,1.19-5.74,3.25-6.32C133.84,397.49,135,400,135.67,401.29Z" style="fill:#FFBAA6"></path><path d="M132.88,405.24c-2.07.35-1.63,6.05-1.57,7.44a72.21,72.21,0,0,0,1.9,12.49c1.49,6.76,3.43,13.23,6.89,19.16h0c0,.08,0,.16.07.24a2.13,2.13,0,0,0,.22.21.31.31,0,0,0,0,.1.18.18,0,0,0,.2.12c0-.11-.06-.21-.07-.32-.24-.83-.43-1.68-.61-2.53l-.09-.42c-1.2-5.88-1.41-12-1.85-18a66.9,66.9,0,0,0-1.89-12.44C135.87,410.28,134.63,405,132.88,405.24Zm1.87,3c2.83,6.57,2.75,14.38,3.23,21.39a73.91,73.91,0,0,0,2,14.09,69.27,69.27,0,0,1-6-17.47A91.59,91.59,0,0,1,132,415.88a38.89,38.89,0,0,1-.32-5.71,14.68,14.68,0,0,1,.44-3.4C132.87,404.72,134.26,407.13,134.75,408.26Z" style="fill:#fff"></path><path d="M152.09,454a.41.41,0,0,1,0,.37h.14a.11.11,0,0,1,.11.1.1.1,0,0,1-.09.12c-8.16,1.29-17.22,1.66-25.25-.53a32.23,32.23,0,0,1-9.55-4.29c-2-1.35-6-4.06-6.24-6.75-.45-5.41,13.89.21,16,1.06,3.93,1.55,7.72,3.43,11.62,5.06,4.28,1.78,8.67,3.25,13.06,4.72A.35.35,0,0,1,152.09,454Z" style="fill:#FFBAA6"></path><path d="M152.09,454c-.45,0-.88-.08-1.32-.14a69.34,69.34,0,0,1-20.65-5.6A64.08,64.08,0,0,0,120,444.41c-.87-.2-4.06-1.21-3.55.84.27,1.06,5.52,4.09,6.94,4.76a43.86,43.86,0,0,0,10.3,3.23,72.74,72.74,0,0,0,18.05,1.25c.18,0,.36,0,.53,0a.1.1,0,0,0-.11-.1h-.14A.41.41,0,0,0,152.09,454Zm-15.33-.63a51.23,51.23,0,0,1-10.41-2.55,36.62,36.62,0,0,1-3.91-1.73,22.4,22.4,0,0,1-2.87-1.71c-2.21-1.6-2.66-2.19-2.47-2.62.12-.26.59-.41,2.38-.11a17.12,17.12,0,0,1,3.37,1c1.56.59,3.09,1.23,4.62,1.9,3.05,1.31,6.09,2.67,9.23,3.76a53.65,53.65,0,0,0,14,2.91A82.11,82.11,0,0,1,136.76,453.36Z" style="fill:#fff"></path><path d="M151.24,430.57a20.41,20.41,0,0,1,4.21,7.68c1.86,5.55,2.52,11.42,4,17.08q.33,1.26.72,2.52c0,.09.59,1,.52,1l-.73-.76h0c-2.2-2.32-8.78-9.45-11.29-14.27a42,42,0,0,1-3.79-9.45c-.36-1.56-1-5.11.53-6.31S150.18,429.45,151.24,430.57Z" style="fill:#FFBAA6"></path><path d="M147.9,431.94c-2.19.91,2.33,10.51,2.9,11.77a58.9,58.9,0,0,0,8,13c.36.46.73.9,1.1,1.34s.71.75.73.76-.48-.88-.52-1-.09-.29-.14-.43c-.2-.7-.4-1.4-.58-2.09-1.43-3.79-2.79-7.61-4.31-11.38a54.93,54.93,0,0,0-3.82-7.87C151,435.51,148.85,431.54,147.9,431.94Zm1.78,2c4.89,7,6.66,15.45,9.89,23.23l.15.38c-.13-.18-.27-.35-.4-.52a66.68,66.68,0,0,1-6.82-10.68,64.6,64.6,0,0,1-3.08-7.09,33.34,33.34,0,0,1-1.36-4c-.13-.6-.42-2.27,0-2.47C148.61,432.44,149.36,433.46,149.68,433.92Z" style="fill:#fff"></path><path d="M108.92,375.5c7.69,12.84,3.77,29.31,10.58,42.53a.21.21,0,0,0,0,.06c.2.41.42.8.65,1.2a.28.28,0,0,1-.21.41.2.2,0,0,1-.2-.11l-.16-.29c-6.09-5.66-11-13.35-14.66-20.79-3.15-6.47-5.23-13.73-4.15-21,.26-1.78.67-5.34,2.82-6S108,373.92,108.92,375.5Z" style="fill:#FFBAA6"></path><path d="M106.27,380.22c-.9.29-1,1.62-1.12,2.35a22.93,22.93,0,0,0-.12,5.49,38.25,38.25,0,0,0,2.79,10.87,78.17,78.17,0,0,0,9.09,17c.86,1.18,1.76,2.31,2.72,3.4.11.14.24.26.35.4a.29.29,0,0,0,.22-.41c-.24-.38-.43-.76-.65-1.15a1.17,1.17,0,0,1,0-.11,45.94,45.94,0,0,1-3.89-8,109.07,109.07,0,0,1-3.43-13.45C111.79,394.8,109.36,379.2,106.27,380.22Zm2,2.62c1.57,3.36,2.07,7.17,2.87,10.76s1.58,7.26,2.44,10.87a52.39,52.39,0,0,0,2.77,8.41,40.94,40.94,0,0,0,3.47,6.5,57,57,0,0,1-4.23-5.89.13.13,0,0,1,0-.08,103.82,103.82,0,0,1-6-11.42l-.07-.15a47,47,0,0,1-3.66-10.74,26.45,26.45,0,0,1-.52-6.15c.11-2.34.44-4.22,1.23-4.25C107.1,380.69,107.84,381.85,108.3,382.84Z" style="fill:#fff"></path><path d="M109.87,401.83c2.1,3.7,4.3,7.38,6.51,11.05q1.56,2.6,3.12,5.15a1.17,1.17,0,0,0,0,.11c.38.61.75,1.24,1.13,1.86,3.39,5.6,6.75,11.5,11,16.49a56.44,56.44,0,0,0,7.55,7.17c.29.21.57.44.85.67h0l.47.35.26.2c2.38,1.84,4.86,3.56,7.28,5.22,3.38,2.32,6.89,4.4,10.41,6.44a1.92,1.92,0,0,0,.31.18l.48.29.25.14c.14.09.3.17.44.27,1.14.65,2.27,1.31,3.4,2l-.72,1a79.84,79.84,0,0,1-10.71-5.8l-.21-.13c-.34-.2-.68-.42-1-.64s-.82-.52-1.22-.79c-1-.65-2-1.3-2.9-1.95-5.51-3.8-11.14-7.91-15.62-12.93l-.37-.43-.15-.17-.27-.3-.41-.49-.71-.9-.2-.27c-3.66-4.72-6.6-10.16-9.54-15.3-.54-.94-1.07-1.88-1.59-2.83-.3-.53-.59-1.06-.88-1.59-.42-.8-.86-1.61-1.29-2.41a.13.13,0,0,1,0-.08c-2-3.8-4-7.64-6-11.42C109.48,401.81,109.77,401.65,109.87,401.83Z" style="fill:#FFBAA6"></path></g><g id="freepik--Device--inject-63"><path d="M340.81,49H159.16a18.55,18.55,0,0,0-18.37,18.72v374a18.56,18.56,0,0,0,18.37,18.72H340.81a18.57,18.57,0,0,0,18.4-18.72V67.75A18.56,18.56,0,0,0,340.81,49Zm6.91,381.11c0,9.84-7.37,17.81-16.46,17.81H168.75c-9.11,0-16.48-8-16.48-17.81V81.93c0-20.05,7.37-21,16.48-21H201.3c1.89,0,3.43,2.15,3.43,4.81v1.15c0,6.24,3.42,6.27,7.62,6.27h75.29c4.23,0,7.61,0,7.61-6.27V65.71c0-2.66,1.53-4.81,3.45-4.81h32.56c9.09,0,16.46,2.66,16.46,21Z" style="fill:#263238"></path><path d="M260.26,65.33H239.73a1.27,1.27,0,0,1-1.27-1.27h0a1.27,1.27,0,0,1,1.27-1.27h20.53a1.27,1.27,0,0,1,1.27,1.27h0A1.27,1.27,0,0,1,260.26,65.33Z" style="fill:#fff"></path><path d="M347.72,81.93V430.14c0,9.84-7.37,17.81-16.46,17.81H168.75c-9.11,0-16.48-8-16.48-17.81V81.93c0-20.05,7.37-21,16.48-21H201.3c1.89,0,3.43,2.15,3.43,4.81v1.15c0,6.24,3.42,6.27,7.62,6.27h75.29c4.23,0,7.61,0,7.61-6.27V65.71c0-2.66,1.53-4.81,3.45-4.81h32.56C340.35,60.9,347.72,63.56,347.72,81.93Z" style="fill:#fff"></path><path d="M347.72,81.93v31.18H152.26V81.93c0-20.05,7.37-21,16.48-21H201.3c1.89,0,3.44,2.15,3.44,4.82v1.15c0,6.24,3.42,6.26,7.61,6.26h75.28c4.23,0,7.63,0,7.63-6.26V65.72c0-2.67,1.53-4.82,3.45-4.82h32.55C340.35,60.9,347.72,63.57,347.72,81.93Z" style="fill:#FFBAA6"></path><g id="freepik--u5zjqx--inject-63"><path d="M195.68,68.72l-.31.31-.18.18a4.29,4.29,0,0,0-6.07,0L189,69l-.31-.32h0l0,0,.39-.35a6,6,0,0,1,.92-.59,4.87,4.87,0,0,1,1.22-.41l.61-.08h.54l.41,0a4.8,4.8,0,0,1,1.12.26,5.84,5.84,0,0,1,.76.36,4.89,4.89,0,0,1,.72.5l.33.3Z" style="fill:#fff"></path><path d="M190.12,70.2l-.5-.49a3.58,3.58,0,0,1,5.07,0c-.17.17-.34.33-.5.5a2.82,2.82,0,0,0-2-.85A2.88,2.88,0,0,0,190.12,70.2Z" style="fill:#fff"></path><path d="M193.69,70.69l-.49.5a1.48,1.48,0,0,0-2.09,0l-.49-.49A2.16,2.16,0,0,1,193.69,70.69Z" style="fill:#fff"></path><path d="M192.6,71.64a.45.45,0,1,1-.44-.45A.44.44,0,0,1,192.6,71.64Z" style="fill:#fff"></path></g><circle cx="166.3" cy="69.67" r="1.3" style="fill:#fff"></circle><circle cx="170.38" cy="69.67" r="1.3" style="fill:#fff"></circle><circle cx="174.46" cy="69.67" r="1.3" style="fill:#fff"></circle><path d="M177.25,69.67A1.3,1.3,0,1,1,178.54,71,1.3,1.3,0,0,1,177.25,69.67Z" style="fill:#fff"></path><path d="M181.33,69.67A1.3,1.3,0,1,1,182.62,71,1.3,1.3,0,0,1,181.33,69.67Z" style="fill:#fff"></path><path d="M333.06,72.5H322.51V67.61h10.55Zm-10-.54h9.47V68.15h-9.47Z" style="fill:#fff"></path><rect x="323.39" y="68.44" width="6.8" height="3.23" style="fill:#fff"></rect><rect x="333.07" y="68.75" width="0.94" height="2.61" style="fill:#fff"></rect><path d="M236.37,100.76h-2.12l-.43,1.14a.5.5,0,0,1-.63.28.49.49,0,0,1-.28-.63l1.93-5.16a.49.49,0,0,1,.47-.3.47.47,0,0,1,.46.3l1.94,5.16a.5.5,0,0,1-.29.63.47.47,0,0,1-.17,0,.49.49,0,0,1-.45-.31Zm-.36-1-.7-1.88-.71,1.88Z" style="fill:#fff"></path><path d="M238.91,101.73V96.56a.47.47,0,0,1,.48-.48h1a3.07,3.07,0,0,1,0,6.13h-1A.48.48,0,0,1,238.91,101.73Zm1-.49h.54a2.1,2.1,0,0,0,0-4.19h-.54Z" style="fill:#fff"></path><path d="M245.32,100.4a1.2,1.2,0,0,0,2.35-.36V96.56a.49.49,0,0,1,1,0V100a2.18,2.18,0,0,1-4.25.66.46.46,0,0,1,.31-.6A.47.47,0,0,1,245.32,100.4Z" style="fill:#fff"></path><path d="M252.6,102.21a2.53,2.53,0,0,1-2.53-2.53V96.56a.47.47,0,0,1,.48-.48.49.49,0,0,1,.49.48v3.12a1.56,1.56,0,0,0,3.12,0V96.56a.48.48,0,0,1,.49-.48.47.47,0,0,1,.48.48v3.12A2.53,2.53,0,0,1,252.6,102.21Z" style="fill:#fff"></path><path d="M257,100.68a.45.45,0,0,1,.63-.06,2.86,2.86,0,0,0,1.68.68,1.81,1.81,0,0,0,1.09-.33.77.77,0,0,0,.38-.63.54.54,0,0,0-.08-.28.8.8,0,0,0-.26-.26,3.4,3.4,0,0,0-1.2-.41h0a5.16,5.16,0,0,1-1.13-.34,1.88,1.88,0,0,1-.81-.69,1.26,1.26,0,0,1-.21-.71,1.61,1.61,0,0,1,.7-1.28,2.61,2.61,0,0,1,1.52-.47,3.44,3.44,0,0,1,1.91.7.45.45,0,0,1,.12.62.44.44,0,0,1-.62.14,2.55,2.55,0,0,0-1.41-.56,1.7,1.7,0,0,0-1,.29.69.69,0,0,0-.33.56.38.38,0,0,0,.06.24.83.83,0,0,0,.23.23,2.91,2.91,0,0,0,1.1.38h0a5.12,5.12,0,0,1,1.2.37,2,2,0,0,1,.88.73,1.42,1.42,0,0,1,.21.74,1.7,1.7,0,0,1-.75,1.36,2.71,2.71,0,0,1-1.62.5,3.76,3.76,0,0,1-2.25-.88A.47.47,0,0,1,257,100.68Z" style="fill:#fff"></path><path d="M266.65,97.05h-1.4v4.68a.47.47,0,0,1-.48.48.48.48,0,0,1-.48-.48V97.05h-1.38a.49.49,0,0,1-.48-.49.47.47,0,0,1,.48-.48h3.74a.48.48,0,0,1,.48.48A.5.5,0,0,1,266.65,97.05Z" style="fill:#fff"></path><path d="M213.75,375a12.38,12.38,0,1,1,12.38-12.38A12.4,12.4,0,0,1,213.75,375Zm0-24.26a11.88,11.88,0,1,0,11.88,11.88A11.9,11.9,0,0,0,213.75,350.74Z" style="fill:#c7c7c7"></path><path d="M213.75,368.46a5.84,5.84,0,1,1,5.84-5.84A5.85,5.85,0,0,1,213.75,368.46Zm0-10.93a5.09,5.09,0,1,0,5.09,5.09A5.09,5.09,0,0,0,213.75,357.53Z" style="fill:#c7c7c7"></path><path d="M213.75,367.17v-.51h3.68a6.65,6.65,0,0,1-.65.51Z" style="fill:#c7c7c7"></path><path d="M213.75,365.93v-.51h4.68a2.83,2.83,0,0,1-.34.51Z" style="fill:#c7c7c7"></path><path d="M213.75,364.71v-.51H219a5.17,5.17,0,0,1-.18.51Z" style="fill:#c7c7c7"></path><path d="M213.75,363.48V363h5.44a2.1,2.1,0,0,1-.06.51Z" style="fill:#c7c7c7"></path><path d="M213.75,362.26v-.51h5.38a2.16,2.16,0,0,1,.06.51Z" style="fill:#c7c7c7"></path><path d="M213.75,361v-.51h5.05a3.82,3.82,0,0,1,.18.51Z" style="fill:#c7c7c7"></path><path d="M213.75,359.81v-.51h4.33a2.73,2.73,0,0,1,.35.51Z" style="fill:#c7c7c7"></path><path d="M213.75,358.59v-.51h3a4.56,4.56,0,0,1,.65.51Z" style="fill:#c7c7c7"></path><path d="M232.18,337.82a2.44,2.44,0,0,1,2.43-2.38,2.46,2.46,0,0,1,1.52.51.38.38,0,0,1-.46.61,1.63,1.63,0,0,0-1.06-.37,1.75,1.75,0,0,0-1.19.48,1.61,1.61,0,0,0-.48,1.15,1.59,1.59,0,0,0,.48,1.15,1.74,1.74,0,0,0,1.19.47,1.64,1.64,0,0,0,1.06-.36.4.4,0,0,1,.53.07.39.39,0,0,1-.07.53,2.47,2.47,0,0,1-1.52.52A2.43,2.43,0,0,1,232.18,337.82Z" style="fill:#263238"></path><path d="M241,336.15a2.42,2.42,0,0,1,0,3.34,2.16,2.16,0,0,1-1.58.71,2.22,2.22,0,0,1-1.62-.71,2.47,2.47,0,0,1,0-3.34,2.18,2.18,0,0,1,1.62-.71A2.13,2.13,0,0,1,241,336.15Zm-.09,1.67a1.72,1.72,0,0,0-.45-1.16,1.39,1.39,0,0,0-1-.47,1.44,1.44,0,0,0-1.07.47,1.68,1.68,0,0,0-.45,1.16,1.65,1.65,0,0,0,.45,1.15,1.47,1.47,0,0,0,1.07.47,1.43,1.43,0,0,0,1-.47A1.7,1.7,0,0,0,240.91,337.82Z" style="fill:#263238"></path><path d="M243.52,339.83a.37.37,0,0,1-.35.37.37.37,0,0,1-.37-.37V336h0a.4.4,0,0,1,.15-.31.36.36,0,0,1,.5.08l2.13,3V336a.36.36,0,0,1,.36-.35.37.37,0,0,1,.37.35v3.84a.36.36,0,0,1-.64.23s0,0,0,0l-2.12-2.93Z" style="fill:#263238"></path><path d="M250.65,336.3H249.6v3.53a.36.36,0,1,1-.72,0V336.3h-1a.36.36,0,0,1-.36-.36.36.36,0,0,1,.36-.37h2.82a.37.37,0,0,1,.37.37A.37.37,0,0,1,250.65,336.3Z" style="fill:#263238"></path><path d="M255.17,339.65a.37.37,0,0,1-.23.46l-.15,0h0a.45.45,0,0,1-.25-.07.66.66,0,0,1-.21-.23,1.69,1.69,0,0,1-.14-.8.66.66,0,0,0-.08-.28.61.61,0,0,0-.2-.19,1.26,1.26,0,0,0-.37-.16h-.78v1.43a.38.38,0,0,1-.37.37.36.36,0,0,1-.36-.37v-3.89a.35.35,0,0,1,.36-.37h1.18a1.41,1.41,0,0,1,.9,2.51.76.76,0,0,1,.23.24,1.27,1.27,0,0,1,.22.71,1.18,1.18,0,0,0,0,.39A.4.4,0,0,1,255.17,339.65Zm-.93-2.66a.68.68,0,0,0-.68-.69h-.81v1.37h.81A.68.68,0,0,0,254.24,337Z" style="fill:#263238"></path><path d="M258.6,339.11H257l-.32.86a.38.38,0,0,1-.35.23l-.12,0a.38.38,0,0,1-.22-.48l1.46-3.89a.36.36,0,0,1,.35-.23.35.35,0,0,1,.35.23l1.46,3.89a.37.37,0,0,1-.22.48l-.12,0a.36.36,0,0,1-.34-.23Zm-.27-.73-.54-1.42-.53,1.42Z" style="fill:#263238"></path><path d="M260.25,339.05a.34.34,0,0,1,.48-.05,2.14,2.14,0,0,0,1.26.51,1.41,1.41,0,0,0,.83-.25.58.58,0,0,0,.28-.47.35.35,0,0,0-.06-.21.7.7,0,0,0-.19-.2,2.59,2.59,0,0,0-.91-.31h0a3.75,3.75,0,0,1-.86-.26,1.45,1.45,0,0,1-.61-.51,1,1,0,0,1-.15-.55,1.2,1.2,0,0,1,.53-1,1.9,1.9,0,0,1,1.14-.35,2.56,2.56,0,0,1,1.44.53.34.34,0,0,1-.38.57,1.87,1.87,0,0,0-1.06-.43,1.28,1.28,0,0,0-.74.23.52.52,0,0,0-.25.41.29.29,0,0,0,.05.19.67.67,0,0,0,.17.17,2.4,2.4,0,0,0,.83.29h0a3.74,3.74,0,0,1,.91.28,1.51,1.51,0,0,1,.67.55,1,1,0,0,1,.15.56,1.26,1.26,0,0,1-.56,1,2.09,2.09,0,0,1-1.23.38,2.87,2.87,0,0,1-1.69-.66A.36.36,0,0,1,260.25,339.05Z" style="fill:#263238"></path><path d="M267.53,336.3h-1v3.53a.36.36,0,0,1-.36.37.37.37,0,0,1-.37-.37V336.3h-1a.36.36,0,0,1-.36-.36.36.36,0,0,1,.36-.37h2.82a.36.36,0,0,1,.36.37A.36.36,0,0,1,267.53,336.3Z" style="fill:#263238"></path><path d="M177.5,375a12.38,12.38,0,1,1,12.38-12.38A12.4,12.4,0,0,1,177.5,375Zm0-24.26a11.88,11.88,0,1,0,11.88,11.88A11.9,11.9,0,0,0,177.5,350.74Z" style="fill:#c7c7c7"></path><path d="M177.5,368.46a5.84,5.84,0,1,1,5.84-5.84A5.85,5.85,0,0,1,177.5,368.46Zm0-10.93a5.09,5.09,0,1,0,5.09,5.09A5.09,5.09,0,0,0,177.5,357.53Z" style="fill:#c7c7c7"></path><path d="M177.5,357.15a5.47,5.47,0,0,1,0,10.93Z" style="fill:#c7c7c7"></path><path d="M177.5,358.07v.51h-3.69a6.79,6.79,0,0,1,.66-.51Z" style="fill:#c7c7c7"></path><path d="M177.5,359.31v.51h-4.69a3.77,3.77,0,0,1,.34-.51Z" style="fill:#c7c7c7"></path><path d="M177.5,360.53V361h-5.24a4.45,4.45,0,0,1,.19-.51Z" style="fill:#c7c7c7"></path><path d="M177.5,361.75v.51h-5.45a2.22,2.22,0,0,1,.06-.51Z" style="fill:#c7c7c7"></path><path d="M177.5,363v.51h-5.39a2.16,2.16,0,0,1-.06-.51Z" style="fill:#c7c7c7"></path><path d="M177.5,364.2v.51h-5.05a3.84,3.84,0,0,1-.19-.51Z" style="fill:#c7c7c7"></path><path d="M177.5,365.43v.51h-4.34a5.16,5.16,0,0,1-.35-.51Z" style="fill:#c7c7c7"></path><path d="M177.5,366.65v.51h-3a5.52,5.52,0,0,1-.66-.51Z" style="fill:#c7c7c7"></path><path d="M250,375a12.38,12.38,0,1,1,12.38-12.38A12.39,12.39,0,0,1,250,375Zm0-24.26a11.88,11.88,0,1,0,11.88,11.88A11.89,11.89,0,0,0,250,350.74Z" style="fill:#263238"></path><path d="M250,368.46a5.84,5.84,0,1,1,5.84-5.84A5.85,5.85,0,0,1,250,368.46Zm0-10.93a5.09,5.09,0,1,0,5.09,5.09A5.09,5.09,0,0,0,250,357.53Z" style="fill:#263238"></path><path d="M250,357.15a5.47,5.47,0,0,1,0,10.93Z" style="fill:#263238"></path><path d="M286.25,375a12.38,12.38,0,1,1,12.39-12.38A12.39,12.39,0,0,1,286.25,375Zm0-24.26a11.88,11.88,0,1,0,11.89,11.88A11.89,11.89,0,0,0,286.25,350.74Z" style="fill:#c7c7c7"></path><path d="M289,362.62a2.71,2.71,0,1,1-2.71-2.7A2.7,2.7,0,0,1,289,362.62Z" style="fill:#c7c7c7"></path><path d="M286.87,357.94a.62.62,0,0,1-.62.62.63.63,0,1,1,.62-.62Z" style="fill:#c7c7c7"></path><circle cx="282.94" cy="359.31" r="0.62" style="fill:#c7c7c7"></circle><path d="M281.57,362a.62.62,0,1,1-.62.62A.62.62,0,0,1,281.57,362Z" style="fill:#c7c7c7"></path><path d="M282.5,365.49a.62.62,0,1,1,0,.88A.63.63,0,0,1,282.5,365.49Z" style="fill:#c7c7c7"></path><path d="M285.63,367.3a.62.62,0,0,1,.62-.62.62.62,0,0,1,.62.62.61.61,0,0,1-.62.62A.62.62,0,0,1,285.63,367.3Z" style="fill:#c7c7c7"></path><path d="M289.12,366.37a.62.62,0,0,1,.88-.88.61.61,0,0,1,0,.88A.63.63,0,0,1,289.12,366.37Z" style="fill:#c7c7c7"></path><path d="M290.94,363.24a.62.62,0,1,1,.62-.62A.63.63,0,0,1,290.94,363.24Z" style="fill:#c7c7c7"></path><path d="M290,359.75a.62.62,0,0,1-.88-.88.62.62,0,0,1,.88.88Z" style="fill:#c7c7c7"></path><path d="M322.5,375a12.38,12.38,0,1,1,12.39-12.38A12.4,12.4,0,0,1,322.5,375Zm0-24.26a11.88,11.88,0,1,0,11.89,11.88A11.89,11.89,0,0,0,322.5,350.74Z" style="fill:#c7c7c7"></path><circle cx="322.5" cy="362.62" r="4.68" style="fill:#c7c7c7"></circle><circle cx="322.5" cy="362.62" r="1.2" style="fill:#fff"></circle><rect x="169.18" y="390.74" width="161.65" height="3.03" rx="1.41" style="fill:#263238"></rect><rect x="249.65" y="378.64" width="0.7" height="15.13" style="fill:#263238"></rect><rect x="171.09" y="396.78" width="0.54" height="3.94" transform="translate(-227.39 570.12) rotate(-90)" style="fill:#263238"></rect><rect x="328.58" y="396.78" width="0.54" height="3.94" style="fill:#263238"></rect><rect x="328.58" y="396.78" width="0.54" height="3.94" transform="translate(-69.9 727.6) rotate(-90)" style="fill:#263238"></rect><path d="M272.05,392.25a2.68,2.68,0,1,1-2.68-2.68A2.68,2.68,0,0,1,272.05,392.25Z" style="fill:#FFBAA6"></path><path d="M248,398.75a3.45,3.45,0,0,1,.55-1.93,1.7,1.7,0,0,1,3,0,3.72,3.72,0,0,1,0,3.86,1.69,1.69,0,0,1-3,0A3.43,3.43,0,0,1,248,398.75Zm3.19,0a2.69,2.69,0,0,0-.39-1.43,1,1,0,0,0-.75-.5,1,1,0,0,0-.77.5,2.82,2.82,0,0,0,0,2.86,1,1,0,0,0,.77.5,1,1,0,0,0,.75-.5A2.69,2.69,0,0,0,251.15,398.75Z" style="fill:#263238"></path><path d="M160.84,412.24c44.45-.12,133.89-.12,178.32,0-44.45.12-133.89.12-178.32,0Z" style="fill:#263238"></path><path d="M165.79,427.41a2.17,2.17,0,0,1,2.16-2.13,2.25,2.25,0,0,1,1.36.46.35.35,0,0,1,.06.47.34.34,0,0,1-.47.07,1.47,1.47,0,0,0-1-.32,1.57,1.57,0,0,0-1.06.42,1.47,1.47,0,0,0-.43,1,1.44,1.44,0,0,0,.43,1,1.57,1.57,0,0,0,1.06.42,1.47,1.47,0,0,0,1-.32.34.34,0,0,1,.41.54,2.25,2.25,0,0,1-1.36.46A2.16,2.16,0,0,1,165.79,427.41Z"></path><path d="M172.94,428.06v1.15a.31.31,0,0,1-.61.06,1.36,1.36,0,0,1-.79.26,1.38,1.38,0,0,1-1-.43,1.55,1.55,0,0,1-.4-1,1.51,1.51,0,0,1,.4-1,1.35,1.35,0,0,1,1.79-.18.31.31,0,0,1,.3-.26.31.31,0,0,1,.31.32Zm-.62,0a.88.88,0,0,0-.23-.61.75.75,0,0,0-1.1,0,.88.88,0,0,0-.22.61.91.91,0,0,0,.22.61.77.77,0,0,0,1.1,0A.92.92,0,0,0,172.32,428.06Z"></path><path d="M176.5,427.81v1.4a.32.32,0,0,1-.31.32.33.33,0,0,1-.31-.32v-1.4a.61.61,0,0,0-.61-.6.59.59,0,0,0-.59.6v1.4a.07.07,0,0,1,0,.06.31.31,0,0,1-.31.26.32.32,0,0,1-.31-.32v-2.32a.32.32,0,0,1,.6-.13,1.22,1.22,0,0,1,.63-.18A1.24,1.24,0,0,1,176.5,427.81Z"></path><path d="M177.45,428.06a1.5,1.5,0,0,1,1.49-1.48,1.57,1.57,0,0,1,.94.32.33.33,0,0,1,.06.44.32.32,0,0,1-.44.06.94.94,0,0,0-.56-.19.85.85,0,1,0,0,1.69,1,1,0,0,0,.56-.19.32.32,0,0,1,.44.07.32.32,0,0,1-.06.43,1.57,1.57,0,0,1-.94.32A1.49,1.49,0,0,1,177.45,428.06Z"></path><path d="M180.72,428.05a1.46,1.46,0,0,1,1.44-1.47,1.41,1.41,0,0,1,1.42,1.37v0s0,0,0,0a.27.27,0,0,1-.3.23h-1.88a.81.81,0,0,0,.2.39.94.94,0,0,0,1.18.12.34.34,0,0,1,.44,0,.27.27,0,0,1,0,.39,1.5,1.5,0,0,1-1.05.39A1.48,1.48,0,0,1,180.72,428.05Zm.64-.29H183a1,1,0,0,0-.87-.62A.83.83,0,0,0,181.36,427.76Z"></path><path d="M184.88,425.4a.33.33,0,0,1,.33.33v3.47a.33.33,0,1,1-.65,0v-3.47A.33.33,0,0,1,184.88,425.4Z"></path><path d="M320.13,429.2v-3.47a.32.32,0,0,1,.33-.33h.69a2.07,2.07,0,0,1,0,4.13h-.69A.33.33,0,0,1,320.13,429.2Zm.66-.33h.36a1.41,1.41,0,0,0,0-2.81h-.36Z" style="fill:#FFBAA6"></path><path d="M324.57,429.1a1.49,1.49,0,0,1-.4-1,1.52,1.52,0,0,1,.4-1,1.38,1.38,0,0,1,1-.45,1.28,1.28,0,0,1,1,.45,1.44,1.44,0,0,1,.41,1,1.42,1.42,0,0,1-.41,1,1.31,1.31,0,0,1-1,.44A1.41,1.41,0,0,1,324.57,429.1Zm.24-1a1,1,0,0,0,.21.62.81.81,0,0,0,.57.22.79.79,0,0,0,.54-.22.94.94,0,0,0,0-1.23.85.85,0,0,0-.54-.23.86.86,0,0,0-.57.23A1,1,0,0,0,324.81,428.06Z" style="fill:#FFBAA6"></path><path d="M330.44,427.81v1.4a.31.31,0,0,1-.3.32.33.33,0,0,1-.32-.32v-1.4a.6.6,0,0,0-.61-.6.59.59,0,0,0-.59.6v1.4a.13.13,0,0,1,0,.06.33.33,0,0,1-.31.26.31.31,0,0,1-.31-.32v-2.32a.31.31,0,0,1,.31-.31.33.33,0,0,1,.29.18,1.16,1.16,0,0,1,.62-.18A1.24,1.24,0,0,1,330.44,427.81Z" style="fill:#FFBAA6"></path><path d="M331.39,428.05a1.46,1.46,0,0,1,1.44-1.47,1.41,1.41,0,0,1,1.42,1.37v0s0,0,0,0a.27.27,0,0,1-.3.23h-1.88a.81.81,0,0,0,.2.39.94.94,0,0,0,1.18.12.34.34,0,0,1,.44,0,.27.27,0,0,1,0,.39,1.49,1.49,0,0,1-2.49-1.09Zm.64-.29h1.67a1,1,0,0,0-.87-.62A.83.83,0,0,0,332,427.76Z" style="fill:#FFBAA6"></path><path d="M250,428.86a3,3,0,1,1,3-2.95A3,3,0,0,1,250,428.86Zm0-5.41a2.46,2.46,0,1,0,2.46,2.46A2.46,2.46,0,0,0,250,423.45Z" style="fill:#263238"></path><path d="M248.09,432.16a3.32,3.32,0,0,1-.77-.1,3,3,0,0,1-.71-5.41h0a3,3,0,1,1,1.48,5.51Zm-1.23-5.08h0a2.45,2.45,0,0,0,.59,4.49,2.45,2.45,0,0,0,2.76-3.59A2.45,2.45,0,0,0,246.86,427.08Z" style="fill:#263238"></path><path d="M251.91,432.2a3,3,0,0,1-1.47-.4h0a3,3,0,0,1-1.38-1.79,3,3,0,1,1,5.41.71,3,3,0,0,1-1.79,1.38A2.91,2.91,0,0,1,251.91,432.2Zm0-5.41a2.46,2.46,0,0,0-2.13,1.23,2.46,2.46,0,0,0,.9,3.35h0a2.46,2.46,0,0,0,3.35-.9,2.46,2.46,0,0,0-2.12-3.68Z" style="fill:#263238"></path><path d="M228.33,427.58a2.71,2.71,0,1,1-2.7-2.71A2.7,2.7,0,0,1,228.33,427.58Z" style="fill:#263238"></path><path d="M226.25,422.89a.62.62,0,0,1-.62.62.61.61,0,0,1-.62-.62.62.62,0,0,1,.62-.62A.62.62,0,0,1,226.25,422.89Z" style="fill:#263238"></path><circle cx="222.32" cy="424.26" r="0.62" style="fill:#263238"></circle><path d="M220.94,427a.63.63,0,1,1-.62.63A.63.63,0,0,1,220.94,427Z" style="fill:#263238"></path><circle cx="222.32" cy="430.89" r="0.62" style="fill:#263238"></circle><path d="M225,432.26a.62.62,0,0,1,.62-.62.62.62,0,0,1,0,1.24A.62.62,0,0,1,225,432.26Z" style="fill:#263238"></path><path d="M228.5,431.33a.63.63,0,0,1,0-.88.61.61,0,0,1,.88,0,.62.62,0,0,1-.88.88Z" style="fill:#263238"></path><path d="M230.31,428.2a.63.63,0,1,1,.62-.62A.62.62,0,0,1,230.31,428.2Z" style="fill:#263238"></path><path d="M229.38,424.7a.61.61,0,0,1-.88,0,.62.62,0,1,1,.88,0Z" style="fill:#263238"></path><rect x="224.44" y="427.29" width="0.45" height="3.04" transform="translate(369.09 -33.24) rotate(45.01)" style="fill:#fff"></rect><polygon points="276.21 431.81 275.71 431.81 275.71 426.67 270.71 426.67 270.71 426.17 276.21 426.17 276.21 431.81" style="fill:#263238"></polygon><polygon points="279.05 428.98 273.56 428.98 273.56 423.34 274.06 423.34 274.06 428.48 279.05 428.48 279.05 428.98" style="fill:#263238"></polygon><path d="M278.21,427a2.65,2.65,0,0,0-2.15-2.55l0-.24a2.9,2.9,0,0,1,2.36,2.76Z" style="fill:#263238"></path><polygon points="276.48 425.18 276.62 425.08 276.14 424.36 276.9 423.94 276.81 423.79 275.89 424.3 276.48 425.18" style="fill:#263238"></polygon><path d="M273.67,431a2.92,2.92,0,0,1-2.36-2.77l.24,0a2.66,2.66,0,0,0,2.16,2.55Z" style="fill:#263238"></path><polygon points="273.29 429.97 273.14 430.07 273.62 430.79 272.87 431.21 272.96 431.36 273.87 430.85 273.29 429.97" style="fill:#263238"></polygon></g><g id="freepik--Character--inject-63"><rect x="160.84" y="125.97" width="178.32" height="196.66" style="fill:#fff"></rect><path d="M339.16,126c.06.19.21,196.72.26,196.91s-178.49,0-178.58.12h-.38v-.37c-.07-.17.19-196.74.14-196.91.14-.17,178.37.37,178.56.25Zm0,0c.07,0-179.35.56-178.08,0l.13,196.66-.37-.38s179.38-.17,178.07.37L339.16,126Z" style="fill:#263238"></path><rect x="165.36" y="130.57" width="169.28" height="187.46" style="fill:#ebebeb"></rect><path d="M272.09,154.91c-9.13,14.51.47,24.72-3.73,29.57-11,12.66-1.95,15.6-4.7,20.07-2.26,3.67-12.53,7.66-7.26,19.18l48.56-6.1c.46-8.16-8.11-11.44-9.31-17s4.79-12-7.41-22.73C280.32,171,276.47,147.94,272.09,154.91Z" style="fill:#263238"></path><path d="M325.78,318H288.51l-.05.37V318H281.4c0-.21-.11-.41-.16-.62,0,0,0-.06,0-.08-.57-2.21-1.14-4.48-1.71-6.72,0-.2-.1-.4-.15-.61s-.09-.31-.13-.47c-.1-.36-.18-.71-.27-1.06-.5-2-1-3.94-1.46-5.87-1.48-6-3.07-12-4.7-18h0c-.06-.27-.11-.51-.19-.76-.2-.75-.4-1.49-.61-2.22h0q-.12-.51-.27-1c-4.25-15.7-8.6-31.14-11.76-45.86h0c-.47-2.2-.92-4.39-1.33-6.56a30.57,30.57,0,0,1-.45-3.22c0-.48-.07-1-.07-1.41-.14-6.36,2.77-8.82,6.34-8.57h0c.21,0,.46,0,.68.07h0l.07,0a13.61,13.61,0,0,1,8,5.4l.81,1.08a0,0,0,0,1,0,0c14.41,19.23,24.09,34.69,39.23,68.19C316.29,296.42,321.35,308,325.78,318Z" style="fill:#f7a9a0"></path><path d="M299.38,318H288.51l-.05.37V318H225.39c0-.41,0-.62,0-.62h74l0,.22C299.34,317.73,299.36,317.87,299.38,318Z" style="fill:#37474f"></path><path d="M288.61,317.41l-.1.62-.05.37V318h-81c-.07-.41-.11-.62-.11-.62Z" style="fill:#263238"></path><path d="M299.37,317.33s0,.1-.05.3,0,.24-.06.4H288.51l-.05.37V318H200.94c.11-.24.24-.46.35-.7Z" style="fill:#37474f"></path><path d="M201.29,317.33h98.08l-7-34.87s6.12-8.78,4-16.66c-3.95-14.89-20-38.55-27.8-47.45-9.61-11-23.73-12.88-34.14,2.14C209,257.22,201.29,317.33,201.29,317.33Z" style="fill:#FFBAA6"></path><g style="opacity:0.6000000000000001"><path d="M201.29,317.33h98.08l-7-34.87s6.12-8.78,4-16.66c-3.95-14.89-20-38.55-27.8-47.45-9.61-11-23.73-12.88-34.14,2.14C209,257.22,201.29,317.33,201.29,317.33Z" style="fill:#fff"></path></g><path d="M279.53,310.54c-.75,2.09-2.37,3.72-3.59,5.54a10.3,10.3,0,0,0-.71,1.25h-1a16.71,16.71,0,0,1,1.9-3c1.28-1.71,2.94-3.6,2.87-5.86-.07-2.86-3-4.75-5.64-4.83-3.18-.07-6.07,1.75-8.44,3.69-4,3.25-7.3,7.5-11.83,10h-2c4.78-2.12,8.2-6.25,12.1-9.68s10-7.21,14.72-3.14A5.42,5.42,0,0,1,279.53,310.54ZM210.86,297a23.58,23.58,0,0,1-6.18,1.2c-.07.3-.12.61-.18.91a39.4,39.4,0,0,0,5.06-.78,8.08,8.08,0,0,0,5.7-4.18c.86-1.85,1-4.23-.52-5.78-1.92-1.94-4.8-1.31-7-.34l-.83.38c-.08.38-.18.75-.27,1.11a17,17,0,0,1,2.62-1.15,5.22,5.22,0,0,1,4.12,0,3.32,3.32,0,0,1,1.68,2.93A6.22,6.22,0,0,1,210.86,297Zm16.67,4.46c.19-2,.53-6.8-2.49-6.89a6.86,6.86,0,0,0-3.69,1.39,14.78,14.78,0,0,0-2.84,2.57c-3.78,4.36-6.18,10.2-11.79,12.64a10.76,10.76,0,0,1-4.63.91c-.05.31-.11.6-.15.88a11.82,11.82,0,0,0,6.56-1.72,21.79,21.79,0,0,0,6.28-6.12,62.25,62.25,0,0,1,5-6.67,11.54,11.54,0,0,1,3.18-2.4,4.13,4.13,0,0,1,2.26-.58c.86.16,1.15,1,1.31,1.77.74,3.41-.37,6.91-.69,10.29a12.61,12.61,0,0,0,1.14,7.29,6.72,6.72,0,0,0,2.37,2.5h1.86l-.48-.2C224.63,314.4,227.05,306.49,227.53,301.47Zm3.29-75.35c-.29.47-.57.92-.84,1.38,1.77-1,3.75-1.45,4.85.52,1,1.82.27,4.41-1.14,5.81-2,2-5,2.67-7.76,2.73-.29,0-.58,0-.87,0-.15.28-.29.57-.43.85a17.13,17.13,0,0,0,4.1-.24,9.63,9.63,0,0,0,6.27-3.55,6,6,0,0,0,.74-5.69C234.84,225.88,232.72,225.52,230.82,226.12Zm23.47-16.28a13.93,13.93,0,0,1-1,1.81c-2.8,4.32-7.55,7-12.39,8.49a33.56,33.56,0,0,1-7,1.26c-.21.31-.43.62-.63.94.78-.05,1.57-.12,2.35-.21a33.69,33.69,0,0,0,7.37-1.76c4.58-1.69,8.91-4.57,11.44-8.85a16,16,0,0,0,.8-1.54Zm-26.91,35.65c2.65-.72,6.58-.25,7.46,2.84s-1.42,5.75-3.44,7.64-4.21,3.62-5.14,6.28c-.77,2.2-.53,4.85,1.49,6.31a10.23,10.23,0,0,0,3.87,1.43,21.88,21.88,0,0,0,3.94.49,14.15,14.15,0,0,0,7.28-1.57,9.88,9.88,0,0,0,4.56-5.75c1.78-5.63-.61-11.28-2.87-16.37-1.32-3-2.76-6.13-3.09-9.43-.3-3,.58-6.29,3.53-7.59,2.41-1.06,4.68.29,5.76,2.47a16.2,16.2,0,0,1,1.28,6.92c.08,3.82.93,9.84,5.76,10.29,2.36.22,4.41-1.43,5.51-3.37a9,9,0,0,0,.35-7.62c-1-2.89-2.9-5.35-4.44-8s-3.09-6.1-2.14-9.37a9.09,9.09,0,0,1,5.4-5.61,9.88,9.88,0,0,1,2.53-.68c-.29-.25-.58-.47-.88-.69a10.48,10.48,0,0,0-6.81,4.42c-3.68,5.51.62,11.42,3.49,16.16,1.51,2.49,3.12,5.54,2.59,8.57-.4,2.33-2.13,4.91-4.63,5.28s-4.2-1.58-5-3.68a23.65,23.65,0,0,1-.91-7c-.19-3.85-1.66-10-6.77-9.36a6.61,6.61,0,0,0-5.19,4.73c-.9,2.92-.17,6.1.81,8.91,2,5.69,5.59,11,5.4,17.28a10.42,10.42,0,0,1-2.9,7.34,11.07,11.07,0,0,1-7.29,2.78,18.81,18.81,0,0,1-4-.26,13,13,0,0,1-4-1.13c-2.72-1.42-2.48-4.75-1.11-7.06,1.5-2.56,4.2-4.12,6.06-6.39,1.54-1.88,2.66-4.62,1.76-7s-3.81-3.54-6.32-3.42a12.87,12.87,0,0,0-7.48,3.34,26.38,26.38,0,0,0-3.11,3.23c-.36.88-.7,1.77-1,2.65.78-1,1.57-1.94,2.38-2.88A15.85,15.85,0,0,1,227.38,245.49Zm49.27,13.59c2.48.59,5.14-.24,7.48-1a43.12,43.12,0,0,1,8.65-2q-.18-.42-.39-.84a38.6,38.6,0,0,0-7.71,1.75c-2.41.81-5.22,1.88-7.79,1.26-2.92-.7-3.73-3.59-3.44-6.26a32.12,32.12,0,0,1,2.8-9c1.27-2.89,2.95-5.54,4.4-8.32l-.54-.81c-.56,1.06-1.15,2.08-1.73,3.09a56.07,56.07,0,0,0-4.11,8.69c-1,2.63-2,5.58-1.72,8.43A5.48,5.48,0,0,0,276.65,259.08Zm13,14.53c-5.91.36-11.55-2.64-15.87-6.45-3.66-3.23-7.21-9.23-12.88-8.42-5.09.73-8.75,6.7-8.32,11.58.57,6.41,8.54,7.61,13.61,8.1,5.38.53,12.63,1.1,14.79,7.07.86,2.34.57,5.12-1.54,6.72s-4.82,1.42-7.11.72c-5.5-1.7-8.78-7.33-14.4-8.85a9.06,9.06,0,0,0-6.8.57,6.86,6.86,0,0,0-3.18,6.22c0,2.73,1,5.28,1.44,7.92.41,2.26.49,5-.82,7-1.74,2.63-5.21,2.2-7.63.84a11.06,11.06,0,0,1-4.35-4.76c-1.94-3.95-1.86-9.14,1-12.66,1.55-1.93,3.67-3.3,5.19-5.27a5.47,5.47,0,0,0,.86-6,6.67,6.67,0,0,0-5.15-3.08,8.73,8.73,0,0,0-6.5,2.22c-2.19,1.76-3.71,4.12-5.42,6.33-.82,1.05-2,2.27-3.45,2.12a3.14,3.14,0,0,1-2.35-2c-1.19-2.67.22-5.27,1.2-7.76s1.34-5.17,0-7.7a7.28,7.28,0,0,0-8.1-4c-.1.33-.22.66-.33,1a6.9,6.9,0,0,1,1.44-.26,6.57,6.57,0,0,1,6.23,3.71,6.91,6.91,0,0,1,.78,3.78,14.56,14.56,0,0,1-1.35,4.35c-1,2.35-1.78,4.71-.73,7.17.85,2,2.86,3.28,5,2.27a7.87,7.87,0,0,0,2.71-2.58c.84-1.15,1.67-2.31,2.61-3.41,1.69-2,3.94-4.07,6.69-4.34,2.12-.2,4.65.56,5.84,2.45,1.39,2.24,0,4.63-1.6,6.29s-3.67,3.13-4.95,5.17a12.06,12.06,0,0,0-1.78,6,13.29,13.29,0,0,0,5.17,11.16c2.05,1.47,5,2.44,7.39,1.41a6.08,6.08,0,0,0,3.44-5.08,18.53,18.53,0,0,0-.75-7.06c-.66-2.64-1.44-5.78-.19-8.36,1.17-2.38,3.74-3.25,6.26-3.08a14,14,0,0,1,7.34,3.23c2.35,1.79,4.54,3.93,7.22,5.24a11.19,11.19,0,0,0,7,1.05A6.22,6.22,0,0,0,282,290a8.06,8.06,0,0,0-1.2-6.71c-3.2-4.85-9.67-5.22-14.88-5.74-3.11-.31-6.34-.74-9.08-2.35a6.87,6.87,0,0,1-3-3.26,7.72,7.72,0,0,1-.09-4.66,11.12,11.12,0,0,1,4.45-6.54,6.75,6.75,0,0,1,7.52.05c2.35,1.48,4.06,3.77,6,5.69a31.49,31.49,0,0,0,6.91,5.24c4.66,2.58,10.21,3.71,15.34,1.94a16.31,16.31,0,0,0,2.6-1.17c.07-.36.12-.72.16-1.09A15.59,15.59,0,0,1,289.62,273.61Zm3.23,11.13-.2-1a13.45,13.45,0,0,0-1.41,1.21,18.18,18.18,0,0,0-4.84,13.15c.16,6.56,2.63,12.75,3.65,19.19h.88c0-.08,0-.14,0-.21-1-6.57-3.64-12.91-3.63-19.63C287.28,292.84,289.11,287.69,292.85,284.74Z" style="fill:#fff"></path><path d="M266.11,280.15a67.55,67.55,0,0,1,11.81,1.43c1.94.44,3.85,1,5.76,1.59,1,.3,1.91.55,2.87.81a10.68,10.68,0,0,0,3.05.45c.09,0,.1.16,0,.17a17.39,17.39,0,0,1-2.89.16,17.74,17.74,0,0,1-2.79-.42c-2-.43-3.93-1-5.9-1.42-4-.91-7.93-1.81-11.94-2.38C265.91,280.51,265.92,280.14,266.11,280.15Z" style="fill:#263238"></path><path d="M256.75,285.05a73.38,73.38,0,0,1,9.67-1.29,46.73,46.73,0,0,1,4.88,0c.78,0,1.56.08,2.34.14s1.71.27,2.56.32c.09,0,.11.17,0,.17-.8,0-1.61.12-2.42.16l-2.43.1c-1.62.08-3.24.17-4.86.23-3.25.11-6.49.26-9.73.5C256.6,285.39,256.59,285.08,256.75,285.05Z" style="fill:#263238"></path><polygon points="300.61 318.03 288.51 318.03 288.46 318.4 288.46 318.03 200.18 318.03 201.61 310 299.19 310 300.61 318.03" style="fill:#263238"></polygon><path d="M267.23,317.33v.08h2.15v-.08Zm0-8.86V318h2.15v-7.42h16.93V318h2.15v-9.56Z" style="fill:#FFBAA6"></path><path d="M245.46,225.71a40.13,40.13,0,0,1-2.57,6c-2.18,4.22-7.3,10.41-13.24,17l0,0c-3.31,3.63-6.87,7.38-10.33,11l0,0h0c-2.07,2.15-4.11,4.24-6,6.21h0c-7.19,7.36-12.76,13-12.76,14,0,1.59,3.7,6.83,5,8.62l.08.12h0l.13.16a3.75,3.75,0,0,1,.22.32l-9.58,16-.46.79-5.64,9.43-.42.7-1.19,2H173.68c-2.64-4.39-5.62-9.61-8.32-15V262.25c9.91-10.12,27.33-22.47,42.49-32a259.88,259.88,0,0,1,22.71-13,28.38,28.38,0,0,1,9.69-3.14h0a6.59,6.59,0,0,1,4.32.88l0,0a2.42,2.42,0,0,1,.31.25l.17.16a4.15,4.15,0,0,1,1,1.38h0a5.83,5.83,0,0,1,.47,1.78h0A16.56,16.56,0,0,1,245.46,225.71Z" style="fill:#f7a9a0"></path><path d="M219.8,260.1c11.07,8.65,26.83-17.47,28-34.36.77-11.28-5.46-15.81-15.12-6.49C220.58,230.93,210.11,252.52,219.8,260.1Z" style="fill:#f7a9a0"></path><path d="M219.31,259.63c1.48-1.77,7.75-10.27,15.28-17.1.06-.05.15,0,.1.07q-2.56,3.1-5.18,6.15l0,0c1.11-.88,2.28-1.7,3.46-2.49.05,0,.11.05.07.09-1,1-2.1,1.93-3.22,2.82l-1.62,1.29c-.16.12-7.08,7.61-8.75,9.34C219.4,259.86,219.22,259.73,219.31,259.63Z" style="fill:#263238"></path><path d="M231.52,305.78a3.37,3.37,0,0,1,0,.55c0,.11,0,.23-.05.37a5.4,5.4,0,0,1-2.11,3.3,14,14,0,0,1-5.29,2.31l-.1,0a1.51,1.51,0,0,1-.28.05l-.35.07h-.18l-.18,0h-.09l.09,0,.1,0,.13,0,.13,0,.43.13.34.1c1.82.54,5.11,1.88,5.79,4.47a.17.17,0,0,1,0,.08,3.09,3.09,0,0,1,.1.62H180.35a3.38,3.38,0,0,1,.18-.62c1.3-3.39,4.84-4,5.86-4.12h.28a0,0,0,0,1,0,0c-.26-.35-2.6-3.7-1.64-5.82,1.93-4.25,7.51-4.3,7.72-4.3a2.44,2.44,0,0,1-.17-.25.55.55,0,0,0-.09-.14h0a5.94,5.94,0,0,1,.18-6.71c1.61-2.36,5.58-3.53,9.93-5.3a8.59,8.59,0,0,0,3-2.1h0a13.8,13.8,0,0,0,1.94-2.65h0c.1-.18.19-.34.25-.48v0c.11-.19.17-.31.2-.37v0c0,.18-.06.36-.08.53-.21,1.8-.68,7.13-.87,9.26l-.07.92a5.35,5.35,0,0,0,.78.57,23.27,23.27,0,0,0,6.44,2h0c6,1.26,13.51,2.09,16.27,5a.74.74,0,0,0,.12.13A3.53,3.53,0,0,1,231.52,305.78Z" style="fill:#f7a9a0"></path><path d="M195.92,318h-3c-1.07-.64-2.1-1.3-3.09-2-1.2-.84-2.34-1.72-3.39-2.61a.12.12,0,0,1,0-.08.14.14,0,0,1,0-.06s.08-.08.13,0l0,0h0l0,0c1.07.67,2.28,1.34,3.61,2C192,316.24,193.9,317.16,195.92,318Z" style="fill:#263238"></path><path d="M223.06,312.36c-10.79-.2-20.52-3.81-30-8.94-.13-.07-.2.11-.11.2,4,3.74,10.36,6.39,15.49,8a28.72,28.72,0,0,0,14.63,1.07C223.26,312.69,223.29,312.36,223.06,312.36Z" style="fill:#263238"></path><path d="M207.76,285.44v0a4.49,4.49,0,0,1-.36.89,10,10,0,0,1-1.54,2.26.86.86,0,0,1-.18.16,11,11,0,0,1-2.08,1.69c-2,1.24-4.34,1.75-6.5,2.68a9.37,9.37,0,0,0-4.67,3.88,5.62,5.62,0,0,0,.46,5.9.15.15,0,0,1-.14.24,15.58,15.58,0,0,0-3.91.88,5.41,5.41,0,0,0-2.59,2,7.2,7.2,0,0,0,.41,7.17,0,0,0,0,0,0,0s0,0-.06,0l-.24.05a10.59,10.59,0,0,0-3.75,1.44,5.28,5.28,0,0,0-1.73,2.4,5.8,5.8,0,0,0-.24.84h-1.37a5.21,5.21,0,0,1,.22-1.27,5.35,5.35,0,0,1,2.28-2.89A9,9,0,0,1,186,313c-1.65-2.2-2.49-5.22-1-7.7a5.24,5.24,0,0,1,3.11-2.14,17.59,17.59,0,0,1,4.42-.31h.05l-.14-.15h0a6.07,6.07,0,0,1-1.72-5,6.61,6.61,0,0,1,3.55-4.83c2.12-1.24,4.54-1.7,6.87-2.41a15.47,15.47,0,0,0,3.49-1.38,7,7,0,0,0,.81-.64,9.82,9.82,0,0,0,2.11-2.87h0c0-.1.09-.19.12-.29S207.83,285.25,207.76,285.44Z" style="fill:#263238"></path><path d="M230.54,310a12,12,0,0,1-5.61,2.69c.21.08.41.17.62.27,1.86.82,4,2.34,4.41,4.37a.19.19,0,0,1,0,.08,2.51,2.51,0,0,1,.07.62h-.12a2.09,2.09,0,0,0-.15-.62.19.19,0,0,0,0-.08c-.67-1.83-2.71-3-4.53-3.62a19.41,19.41,0,0,0-3.11-.83l-1.88-.34,1.26-.24a20.76,20.76,0,0,0,5.88-1.74,5.61,5.61,0,0,0,1-.56c2.16-1.44,3.41-4.12,1.35-6.23-3.61-3.12-8.91-3.5-13.52-4.34-3.31-.44-7-1-9.83-3.41.45-3.47.93-6.94,1.48-10.39,0-.17.05-.35.08-.53,0,0,0,0,0-.05-.12,3.5-.29,7-.51,10.51,2.57,1.74,5.88,2.08,9,2.42a46.24,46.24,0,0,1,9.89,2c2.37.87,5.39,2.36,5.91,5.24A5.22,5.22,0,0,1,230.54,310Z" style="fill:#263238"></path><path d="M244.46,214.73c3.49,8.15,17.51,28.46,27.68,28,6.35-.27-7.82-29.22-7.82-29.22Z" style="fill:#f7a9a0"></path><path d="M244.46,214.73c.66,1.73,10.82,12.12,18.93,10.59,2.64-.5.54-15,.54-15l.09-1.11,1.25-15.52L246,184.8l-2.77-1.14s-.06,4.27-.08,9.58c0,.25,0,.5,0,.76s0,.59,0,.87c0,.79,0,1.6,0,2.41,0,.61,0,1.21,0,1.86s0,1.27,0,1.92A98.85,98.85,0,0,0,244.46,214.73Z" style="fill:#f7a9a0"></path><path d="M243.16,193.24A31.24,31.24,0,0,0,264,209.18l1.25-15.52L246,184.8l-2.77-1.14S243.18,187.93,243.16,193.24Z" style="fill:#263238"></path><path d="M280.36,166.69c7.16,26.37-7.82,33.63-13.5,35.17-5.17,1.4-22.92,5.5-32.77-20s.14-37.15,11.78-41S273.19,140.33,280.36,166.69Z" style="fill:#f7a9a0"></path><path d="M272.7,162.28c-.63.06-1.21,0-1.83,0a3,3,0,0,1-1.87-.35.94.94,0,0,1-.24-1.13,2.34,2.34,0,0,1,2.14-1,3.42,3.42,0,0,1,2.36.74A1,1,0,0,1,272.7,162.28Z" style="fill:#263238"></path><path d="M255.46,168.39c.56-.28,1-.63,1.56-1a2.93,2.93,0,0,0,1.41-1.28.93.93,0,0,0-.39-1.08,2.33,2.33,0,0,0-2.35.25,3.44,3.44,0,0,0-1.63,1.87A1,1,0,0,0,255.46,168.39Z" style="fill:#263238"></path><path d="M260,172.58c0-.06-.11.12-.09.19.47,1.74.72,3.82-.73,4.78,0,0,0,.12,0,.1C261.11,176.91,260.74,174.16,260,172.58Z" style="fill:#263238"></path><path d="M258,171.12c-2.88.47-1.74,6.18.92,5.76S260.42,170.74,258,171.12Z" style="fill:#263238"></path><path d="M256.94,171.65c-.43.42-.81,1.09-1.4,1.27s-1.33-.29-1.89-.77c-.06-.05-.1,0-.09.08.2,1.1.85,2.14,2.05,2.07s1.68-1.18,1.74-2.34C257.36,171.75,257.12,171.48,256.94,171.65Z" style="fill:#263238"></path><path d="M270.67,169.48c0-.07.15.05.16.13.28,1.78.91,3.78,2.62,4.06.06,0,.07.1,0,.1C271.45,173.87,270.65,171.21,270.67,169.48Z" style="fill:#263238"></path><path d="M271.9,167.32c2.81-.76,4.12,4.92,1.52,5.62S269.54,168,271.9,167.32Z" style="fill:#263238"></path><path d="M273.17,167.42c.52.2,1.09.64,1.63.55s.95-.82,1.21-1.5c0-.07.08,0,.1,0,.28,1.08.19,2.29-.81,2.74s-1.82-.36-2.33-1.38C272.88,167.68,273,167.34,273.17,167.42Z" style="fill:#263238"></path><path d="M263.63,186c.49.35,1,.86,1.66.82a4.8,4.8,0,0,0,1.85-.74.07.07,0,0,1,.1.08,2.44,2.44,0,0,1-2.12,1.31,1.94,1.94,0,0,1-1.65-1.36C263.43,186,263.56,185.93,263.63,186Z" style="fill:#263238"></path><path d="M269.67,178s.92,2.57,1.19,3.81c0,.12-.27.24-.69.35,0,0,0,0,0,0a6,6,0,0,1-6.22-1c-.11-.1,0-.26.15-.21a9.1,9.1,0,0,0,5.73.41c0-.36-1.72-4.33-1.53-4.39a11.37,11.37,0,0,1,3,0c-1.76-5.39-4.37-10.45-6.05-15.85a.17.17,0,0,1,.31-.15c3.11,5.12,5.28,11.28,7.24,16.8C273,178.54,270.22,178.14,269.67,178Z" style="fill:#263238"></path><path d="M269.2,181.7a6.5,6.5,0,0,1-2,2.6,2.92,2.92,0,0,1-1.69.55c-1.34,0-1.66-1.15-1.68-2.18A6.94,6.94,0,0,1,264,181,8.43,8.43,0,0,0,269.2,181.7Z" style="fill:#263238"></path><path d="M267.17,184.3a2.92,2.92,0,0,1-1.69.55c-1.34,0-1.66-1.15-1.68-2.18A3,3,0,0,1,267.17,184.3Z" style="fill:#ff9cbd"></path><path d="M251.38,138.34c-12.93.78-23.21,4.91-27.55,11.9-9,14.56.09,36.21-4.09,41.08-10.89,12.73-1.85,15.62-4.57,20.1-2.24,3.69-12.49,7.74-7.14,19.23l48.52-6.39c.41-8.17-8.18-11.39-9.41-17s4.72-12.06-7.55-22.69C231.63,177.72,251.38,138.34,251.38,138.34Z" style="fill:#263238"></path><path d="M231.82,179.25c3.1-.14,10.35-.5,14.43-4.77,2.25-2.35,4-6.11,4.62-12.56,1-11.26,7.65-19.33,20.12-14.26,0,0,1.28-10.48-6.08-13.71s-13.53,4.39-13.53,4.39-15.39.24-22.2,12.69S231.82,179.25,231.82,179.25Z" style="fill:#263238"></path><path d="M241.3,180.87s-7.39-7.33-10.82-4.55,3.18,14.15,8,15a4.63,4.63,0,0,0,5.65-3.55Z" style="fill:#f7a9a0"></path><path d="M232.46,179.54c-.07,0-.07.11,0,.12,3.36.7,5.54,3.31,7.24,6.12-1.15-1-2.53-1.4-3.88,0-.07.07,0,.18.11.15a2.85,2.85,0,0,1,3.26.42,14,14,0,0,1,1.92,2.22c.2.26.68,0,.51-.29l0-.07C240.94,184.19,236.82,179.16,232.46,179.54Z" style="fill:#263238"></path></g></svg>
